HIERARCHY
ROOT Hips
{
    OFFSET 0.000000 0.000000 0.000000
    CHANNELS 6 Xposition Yposition Zposition Zrotation Xrotation Yrotation
    JOINT Spine
    {
        OFFSET -0.000000 7.236184 0.000000
        CHANNELS 3 Zrotation Xrotation Yrotation
        JOINT Spine1
        {
            OFFSET -0.000000 20.420147 0.000000
            CHANNELS 3 Zrotation Xrotation Yrotation
            JOINT Neck
            {
                OFFSET -0.000000 20.336288 1.848754
                CHANNELS 3 Zrotation Xrotation Yrotation
                JOINT Head
                {
                    OFFSET -0.000000 12.354461 -1.764923
                    CHANNELS 3 Zrotation Xrotation Yrotation
                    End Site
                    {
                        OFFSET -0.000000 22.061537 0.000000
                    }
                }
            }
            JOINT LeftShoulder
            {
                OFFSET 3.573296 18.396038 -0.314103
                CHANNELS 3 Zrotation Xrotation Yrotation
                JOINT LeftArm
                {
                    OFFSET 10.880760 0.000000 0.000000
                    CHANNELS 3 Zrotation Xrotation Yrotation
                    JOINT LeftForeArm
                    {
                        OFFSET 27.185530 0.000000 0.000000
                        CHANNELS 3 Zrotation Xrotation Yrotation
                        JOINT LeftHand
                        {
                            OFFSET 27.825975 0.000000 0.000000
                            CHANNELS 3 Zrotation Xrotation Yrotation
                            End Site
                            {
                                OFFSET 13.236923 0.000000 0.000000
                            }
                        }
                    }
                }
            }
            JOINT RightShoulder
            {
                OFFSET -3.474926 18.396038 -0.314103
                CHANNELS 3 Zrotation Xrotation Yrotation
                JOINT RightArm
                {
                    OFFSET -10.880760 0.000000 0.000000
                    CHANNELS 3 Zrotation Xrotation Yrotation
                    JOINT RightForeArm
                    {
                        OFFSET -27.185530 0.000000 0.000000
                        CHANNELS 3 Zrotation Xrotation Yrotation
                        JOINT RightHand
                        {
                            OFFSET -27.825975 0.000000 0.000000
                            CHANNELS 3 Zrotation Xrotation Yrotation
                            End Site
                            {
                                OFFSET -13.236923 0.000000 0.000000
                            }
                        }
                    }
                }
            }
        }
    }
    JOINT LeftUpLeg
    {
        OFFSET 8.824615 0.000000 0.000000
        CHANNELS 3 Zrotation Xrotation Yrotation
        JOINT LeftLeg
        {
            OFFSET -0.000000 -35.111282 0.000000
            CHANNELS 3 Zrotation Xrotation Yrotation
            JOINT LeftFoot
            {
                OFFSET -0.000000 -42.324711 0.000000
                CHANNELS 3 Zrotation Xrotation Yrotation
                JOINT LeftToeBase
                {
                    OFFSET -0.000000 -5.735999 13.236923
                    CHANNELS 3 Zrotation Xrotation Yrotation
                    End Site
                    {
                        OFFSET -0.000000 0.000000 3.529846
                    }
                }
            }
        }
    }
    JOINT RightUpLeg
    {
        OFFSET -8.824615 0.000000 0.000000
        CHANNELS 3 Zrotation Xrotation Yrotation
        JOINT RightLeg
        {
            OFFSET -0.000000 -35.111282 0.000000
            CHANNELS 3 Zrotation Xrotation Yrotation
            JOINT RightFoot
            {
                OFFSET -0.000000 -42.324711 0.000000
                CHANNELS 3 Zrotation Xrotation Yrotation
                JOINT RightToeBase
                {
                    OFFSET -0.000000 -5.735999 13.236923
                    CHANNELS 3 Zrotation Xrotation Yrotation
                    End Site
                    {
                        OFFSET -0.000000 0.000000 3.529846
                    }
                }
            }
        }
    }
}
MOTION
Frames:    10
Frame Time:    0.008333
-4.743551    69.749466    130.373138    1.720749    -31.467424    179.438416    0.447353    0.484549    0.026086    0.170291    7.517885    0.018280    0.831917    -22.889183    1.590347    3.930849    -0.504642    1.943305    21.187366    -16.037882    -16.463236    -9.588159    -6.601651    -65.206902    25.253878    -5.195866    -24.162964    36.106506    -4.574784    -14.865354    -23.154083    -11.290873    13.426422    12.487956    -11.040175    63.198467    -23.674011    -11.624350    24.685091    -22.994419    -8.170553    8.597582    43.782990    -76.449867    32.330666    -1.825637    59.792210    18.191355    -4.792486    -9.232203    -14.149819    -1.593224    -9.002142    1.797422    -12.783890    -77.064522    -6.942645    -0.646527    56.119289    8.454575    5.523868    -9.856169    -21.666523    0.363566    -13.360082    -0.401489    
-4.797749    69.737915    130.407028    1.661412    -31.432077    179.379028    0.425596    0.484372    0.041317    0.160011    7.511862    0.032610    0.817194    -22.955637    1.572546    3.932673    -0.520663    1.930182    21.163460    -16.028187    -16.447863    -9.551846    -6.560523    -65.192749    25.284512    -5.197805    -24.191652    36.267437    -4.601168    -14.909395    -23.176687    -11.278568    13.432281    12.483335    -10.990792    63.139999    -23.721582    -11.681173    24.790840    -23.002228    -8.188088    8.564758    43.137047    -76.326622    31.780449    -1.813037    59.814751    18.192354    -4.761875    -9.233435    -14.173351    -1.609966    -9.030558    1.816420    -12.691457    -77.075500    -6.839399    -0.838823    56.128178    8.653597    5.473321    -9.843383    -21.686071    0.364494    -13.362188    -0.402514    
-4.862206    69.722786    130.446136    1.607817    -31.408419    179.335739    0.406203    0.489980    0.052440    0.157046    7.505306    0.043598    0.800384    -23.029331    1.550008    3.937335    -0.549134    1.913734    21.145182    -16.031288    -16.432980    -9.527081    -6.528348    -65.188148    25.312210    -5.197226    -24.215063    36.418480    -4.624634    -14.951109    -23.206320    -11.269455    13.438511    12.489596    -10.957601    63.067043    -23.771444    -11.734635    24.901667    -23.009636    -8.201100    8.535090    42.518101    -76.236549    31.300287    -1.723683    59.815788    18.113512    -4.747806    -9.229181    -14.200575    -1.624254    -9.054151    1.832632    -12.651730    -77.100456    -6.782632    -1.039560    56.141853    8.855233    5.415211    -9.833029    -21.708048    0.364642    -13.364910    -0.402681    
-4.936396    69.704506    130.490738    1.561201    -31.396055    179.309891    0.390503    0.501580    0.059265    0.160427    7.499123    0.051514    0.781665    -23.109030    1.522452    3.945173    -0.590337    1.893604    21.133141    -16.047297    -16.418909    -9.514123    -6.505591    -65.193230    25.337624    -5.194212    -24.233164    36.557709    -4.644982    -14.990515    -23.242184    -11.262971    13.445202    12.505667    -10.941360    62.979309    -23.822987    -11.786370    25.016821    -23.016405    -8.211478    8.508555    41.934975    -76.184395    30.894821    -1.556233    59.803749    17.955233    -4.750829    -9.216725    -14.232576    -1.636463    -9.074198    1.846486    -12.664992    -77.138039    -6.770366    -1.242664    56.158878    9.054523    5.350010    -9.825850    -21.733458    0.363680    -13.368339    -0.401621    
-5.018743    69.683746    130.540375    1.522971    -31.394257    179.301743    0.379527    0.519169    0.063891    0.169627    7.494564    0.055161    0.761513    -23.192753    1.490027    3.955733    -0.643212    1.869784    21.127438    -16.075489    -16.406601    -9.512763    -6.493207    -65.207230    25.361277    -5.188760    -24.246464    36.682323    -4.661508    -15.026793    -23.282986    -11.259969    13.452227    12.530175    -10.940808    62.877449    -23.875263    -11.837761    25.134340    -23.023609    -8.221324    8.484921    41.404160    -76.173622    30.571295    -1.320028    59.787773    17.728512    -4.770385    -9.194630    -14.269702    -1.646807    -9.092003    1.858227    -12.727731    -77.185806    -6.797037    -1.439422    56.177280    9.243744    5.278796    -9.822342    -21.762909    0.361431    -13.372059    -0.399139    
-5.111186    69.660332    130.596573    1.492528    -31.402248    179.310486    0.373630    0.543401    0.066039    0.183839    7.492224    0.056536    0.739175    -23.282148    1.451462    3.969664    -0.708244    1.841178    21.127914    -16.116060    -16.396349    -9.523927    -6.491474    -65.230217    25.384686    -5.180351    -24.256458    36.796574    -4.673812    -15.061262    -23.329079    -11.259395    13.459764    12.563676    -10.956024    62.759003    -23.930098    -11.892168    25.257238    -23.032152    -8.232768    8.463077    40.918457    -76.204933    30.319843    -1.022903    59.775040    17.441202    -4.804813    -9.162203    -14.311629    -1.655898    -9.108759    1.868553    -12.837330    -77.243866    -6.857105    -1.630837    56.196373    9.424435    5.199618    -9.823120    -21.798056    0.357618    -13.375832    -0.394931    
-5.209962    69.635521    130.657272    1.471244    -31.419287    179.334732    0.373230    0.573068    0.066661    0.201990    7.493277    0.056252    0.715745    -23.372841    1.407954    3.985976    -0.782112    1.808561    21.134260    -16.166552    -16.389290    -9.548633    -6.501439    -65.261383    25.408028    -5.168651    -24.263906    36.897072    -4.680623    -15.092852    -23.377575    -11.261150    13.466637    12.605573    -10.985568    62.630058    -23.985903    -11.948546    25.380497    -23.042477    -8.246445    8.443818    40.503178    -76.276108    30.147228    -0.696587    59.770607    17.122187    -4.849452    -9.121468    -14.354414    -1.663486    -9.124680    1.877179    -12.985651    -77.309135    -6.942241    -1.805123    56.214638    9.585483    5.115258    -9.829158    -21.838001    0.352342    -13.379403    -0.389107    
-5.315503    69.609566    130.722931    1.458145    -31.444820    179.372238    0.377806    0.607512    0.067235    0.223460    7.498391    0.054843    0.691279    -23.464472    1.359171    4.004394    -0.863561    1.771475    21.146086    -16.225454    -16.386116    -9.587337    -6.523259    -65.299973    25.432491    -5.153420    -24.270094    36.988468    -4.681816    -15.122280    -23.426706    -11.264922    13.472126    12.656365    -11.027591    62.492371    -24.044142    -12.007767    25.504728    -23.055443    -8.262743    8.426970    40.152470    -76.381676    30.040739    -0.360571    59.774364    16.787663    -4.901577    -9.073156    -14.396946    -1.669865    -9.139621    1.884438    -13.167970    -77.381348    -7.046539    -1.961829    56.231377    9.726188    5.025381    -9.841022    -21.882586    0.345662    -13.382678    -0.381732    
-5.426229    69.583229    130.792572    1.452338    -31.478510    179.419937    0.386084    0.645491    0.067765    0.248044    7.507503    0.054059    0.664949    -23.555922    1.305217    4.025629    -0.948447    1.730220    21.162060    -16.290838    -16.387623    -9.640441    -6.556044    -65.344627    25.458420    -5.134495    -24.276438    37.072906    -4.677399    -15.149730    -23.474407    -11.269521    13.474216    12.716314    -11.080178    62.352402    -24.105337    -12.068660    25.627663    -23.070898    -8.280987    8.413040    39.863678    -76.513634    29.990425    -0.031538    59.783131    16.452677    -4.959965    -9.019114    -14.439301    -1.675242    -9.152555    1.890557    -13.378248    -77.459450    -7.164845    -2.098053    56.245865    9.843183    4.931770    -9.859101    -21.929977    0.337591    -13.385458    -0.372820    
-5.541842    69.556999    130.866058    1.452541    -31.520676    179.475281    0.396642    0.686108    0.069632    0.275974    7.519780    0.053670    0.637270    -23.647455    1.246477    4.048653    -1.032752    1.684757    21.181255    -16.360479    -16.394175    -9.706916    -6.598786    -65.394424    25.486300    -5.112361    -24.283419    37.154999    -4.668244    -15.175750    -23.518696    -11.274251    13.472886    12.785131    -11.141220    62.213032    -24.170759    -12.130497    25.748981    -23.089247    -8.300150    8.401891    39.625481    -76.665245    29.985392    0.288573    59.792210    16.121708    -5.025593    -8.960588    -14.484173    -1.679802    -9.161072    1.895738    -13.614481    -77.543831    -7.296239    -2.214795    56.257805    9.937115    4.835473    -9.883725    -21.978857    0.328214    -13.388129    -0.362466    
